# File created by Blade
# Date/Time:  Wed Jan 21 16:09:38 2015
# Frame Rate: 120.000 fps
#------------------------------------------------------
:FULLY-SPECIFIED
:DEGREES
217
root 13.870341 33.802407 -22.643820 -177.069501 81.944608 -180.359121
Spine -3.963655 -3.202618 0.112364
Head 25.737787 -7.813134 0.332385
LeftShoulder -14.979000 -30.962174 19.823480
LeftArm 0.714407 5.734422 -12.758404
LeftForeArm 5.671604 -0.000000 -1.999232
LeftHand -6.811790 -0.000000 1.811168
LeftHandThumb1 -26.253704 0.000000 33.147579
RightShoulder -14.341975 -7.148605 -8.855514
RightArm 6.088875 40.543384 16.676988
RightForeArm -32.471004 -0.000000 5.557016
RightHand -6.739299 -0.000000 3.498849
RightHandThumb1 -24.326973 -0.000000 -32.862282
LeftUpLeg 18.703844 7.372228 -6.462102
LeftLeg -13.231888 -0.000000 0.000000
LeftFoot -10.060110 27.567862 13.844220
LeftToeBase -139.020870 -0.000000 0.000000
RightUpLeg -37.802294 0.585393 2.434972
RightLeg 28.437773 -0.000000 -0.000000
RightFoot -11.520196 -12.032940 17.620753
RightToeBase 5.980328 -0.000000 -0.000000
218
root 13.859125 33.815531 -22.639249 -176.340170 81.857865 -179.672903
Spine -4.151374 -3.350724 0.140876
Head 25.716488 -7.773273 0.423391
LeftShoulder -14.968476 -30.875701 19.764735
LeftArm 0.901985 5.751914 -12.627297
LeftForeArm 5.835798 -0.000000 -1.993692
LeftHand -6.754932 -0.000000 2.097190
LeftHandThumb1 -26.253704 0.000000 33.147579
RightShoulder -14.460342 -7.093877 -8.799350
RightArm 6.046628 40.523169 16.640398
RightForeArm -32.433030 -0.000000 5.563839
RightHand -6.707551 0.000000 3.269294
RightHandThumb1 -24.326973 -0.000000 -32.862282
LeftUpLeg 18.683816 7.314125 -6.362800
LeftLeg -13.337816 -0.000000 0.000000
LeftFoot -9.969105 27.528264 13.781330
LeftToeBase -139.121458 -0.000000 0.000000
RightUpLeg -37.166603 0.080735 2.817144
RightLeg 26.413575 -0.000000 -0.000000
RightFoot -12.468268 -15.066463 17.877710
RightToeBase 6.595570 -0.000000 -0.000000
219
root 13.849139 33.827812 -22.632673 -175.986145 81.796301 -179.437665
Spine -4.416938 -3.453595 0.072684
Head 25.682115 -7.779040 0.568089
LeftShoulder -14.937785 -30.867413 19.790106
LeftArm 1.013882 5.843505 -12.530379
LeftForeArm 5.834273 -0.000000 -1.946797
LeftHand -6.742799 -0.000000 2.157256
LeftHandThumb1 -26.253704 0.000000 33.147579
RightShoulder -14.563258 -7.134246 -8.718726
RightArm 5.927926 40.598123 16.603710
RightForeArm -32.394184 -0.000000 5.620625
RightHand -6.678363 -0.000000 3.150178
RightHandThumb1 -24.326973 -0.000000 -32.862282
LeftUpLeg 18.548043 7.273523 -6.331932
LeftLeg -13.357851 -0.000000 0.000000
LeftFoot -9.924140 27.504112 13.733052
LeftToeBase -139.212307 -0.000000 0.000000
RightUpLeg -36.572252 -0.220955 3.028403
RightLeg 24.345080 -0.000000 -0.000000
RightFoot -13.004347 -18.268797 17.880557
RightToeBase 7.532351 -0.000000 -0.000000
220
root 13.846294 33.840143 -22.627194 -175.703363 81.693928 -179.244869
Spine -4.649320 -3.620220 0.016603
Head 25.650757 -7.728500 0.660641
LeftShoulder -14.915995 -30.816702 19.783674
LeftArm 1.136261 5.905331 -12.406655
LeftForeArm 5.936295 0.000000 -1.937720
LeftHand -6.669818 -0.000000 2.100634
LeftHandThumb1 -26.253704 0.000000 33.147579
RightShoulder -14.670551 -7.132347 -8.675416
RightArm 5.892769 40.650500 16.615469
RightForeArm -32.438907 -0.000000 5.576052
RightHand -6.693350 0.000000 3.128871
RightHandThumb1 -24.326973 -0.000000 -32.862282
LeftUpLeg 18.428582 7.204260 -6.296898
LeftLeg -13.331832 -0.000000 0.000000
LeftFoot -9.894808 27.481501 13.659223
LeftToeBase -139.309512 -0.000000 0.000000
RightUpLeg -35.886315 -0.446468 3.145138
RightLeg 22.267768 -0.000000 -0.000000
RightFoot -13.055320 -21.178325 17.523609
RightToeBase 7.283046 -0.000000 -0.000000
221
root 13.848934 33.851686 -22.621940 -175.630343 81.586174 -179.254357
Spine -4.860580 -3.784052 -0.085160
Head 25.589536 -7.673301 0.821722
LeftShoulder -14.910086 -30.765283 19.806302
LeftArm 1.310310 5.950775 -12.299635
LeftForeArm 5.998600 -0.000000 -1.991167
LeftHand -6.758326 -0.000000 2.139118
LeftHandThumb1 -26.253704 0.000000 33.147579
RightShoulder -14.760857 -7.210377 -8.606412
RightArm 5.835285 40.713472 16.611602
RightForeArm -32.381409 -0.000000 5.513354
RightHand -6.633395 -0.000000 3.153072
RightHandThumb1 -24.326973 -0.000000 -32.862282
LeftUpLeg 18.318469 7.097430 -6.293704
LeftLeg -13.291298 -0.000000 0.000000
LeftFoot -9.861206 27.487679 13.581041
LeftToeBase -139.431675 -0.000000 0.000000
RightUpLeg -35.182175 -0.502158 3.119905
RightLeg 20.325762 -0.000000 -0.000000
RightFoot -12.894087 -23.671672 16.978941
RightToeBase 7.517522 -0.000000 -0.000000
222
root 13.855614 33.861081 -22.615662 -175.610430 81.443353 -179.311592
Spine -5.062008 -3.978991 -0.184342
Head 25.544535 -7.660671 0.921586
LeftShoulder -14.872797 -30.742552 19.827895
LeftArm 1.436012 6.051070 -12.192293
LeftForeArm 6.033176 -0.000000 -2.040779
LeftHand -6.815904 -0.000000 2.142115
LeftHandThumb1 -26.253704 0.000000 33.147579
RightShoulder -14.839684 -7.232181 -8.572588
RightArm 5.744075 40.696499 16.583506
RightForeArm -32.360875 -0.000000 5.429864
RightHand -6.599055 -0.000000 3.200653
RightHandThumb1 -24.326973 -0.000000 -32.862282
LeftUpLeg 18.202735 6.986439 -6.283089
LeftLeg -13.214973 -0.000000 0.000000
LeftFoot -9.860205 27.475126 13.531328
LeftToeBase -139.522859 -0.000000 0.000000
RightUpLeg -34.465445 -0.579312 3.069180
RightLeg 18.476207 -0.000000 -0.000000
RightFoot -12.574358 -25.666811 16.272304
RightToeBase 7.974949 -0.000000 -0.000000
